<svg viewBox="0 0 674 229" fill="none" xmlns="http://www.w3.org/2000/svg">
<path d="M257.794 132.932H265.594V154.538H269.884V132.932H277.606V188H269.884V161.87H265.594V188H257.794V132.932ZM293.657 179.186H287.729L287.105 188H279.539L284.609 132.932H296.777L301.847 188H294.281L293.657 179.186ZM293.111 172.01L290.771 139.718H290.615L288.275 172.01H293.111ZM313.171 188.624C310.935 188.624 309.089 188.234 307.633 187.454C306.229 186.674 305.163 185.452 304.435 183.788C304.019 182.904 303.733 181.864 303.577 180.668C303.421 179.42 303.317 177.08 303.265 173.648C303.265 170.164 303.265 165.77 303.265 160.466C303.265 155.162 303.265 150.794 303.265 147.362C303.317 143.878 303.421 141.538 303.577 140.342C303.733 139.094 304.019 138.028 304.435 137.144C305.163 135.48 306.229 134.258 307.633 133.478C309.089 132.698 310.935 132.308 313.171 132.308C316.031 132.308 318.293 133.062 319.957 134.57C320.893 135.454 321.569 136.468 321.985 137.612C322.453 138.704 322.739 140.082 322.843 141.746C322.947 143.41 322.999 145.932 322.999 149.312H315.277C315.277 147.024 315.251 145.178 315.199 143.774C315.199 142.318 315.147 141.382 315.043 140.966C314.991 140.498 314.835 140.16 314.575 139.952C314.159 139.64 313.691 139.484 313.171 139.484C312.131 139.484 311.507 139.848 311.299 140.576C311.195 140.836 311.117 141.46 311.065 142.448C311.013 143.384 310.987 145.308 310.987 148.22C310.987 151.132 310.987 155.214 310.987 160.466C310.987 165.718 310.987 169.8 310.987 172.712C310.987 175.624 311.013 177.574 311.065 178.562C311.117 179.498 311.195 180.096 311.299 180.356C311.507 181.084 312.131 181.448 313.171 181.448C313.691 181.448 314.159 181.292 314.575 180.98C314.835 180.772 314.991 180.46 315.043 180.044C315.147 179.576 315.199 178.588 315.199 177.08C315.251 175.572 315.277 173.648 315.277 171.308H322.999C322.999 174.532 322.921 177.054 322.765 178.874C322.609 180.694 322.297 182.228 321.829 183.476C321.413 184.672 320.763 185.686 319.879 186.518C318.319 187.922 316.083 188.624 313.171 188.624ZM339.534 188L333.996 160.778V188H326.196V132.932H333.996V156.098L338.676 132.932H346.554L340.86 158.438L347.256 188H339.534ZM349.276 132.932H363.316V140.264H357.076V154.538H363.082V161.87H357.076V180.668H363.316V188H349.276V132.932ZM381.014 158.204C382.626 158.464 383.744 159.088 384.368 160.076C385.044 161.012 385.382 162.494 385.382 164.522V188H377.582V163.898C377.582 163.118 377.426 162.598 377.114 162.338C376.802 162.026 376.308 161.87 375.632 161.87H373.682V188H365.882V132.932H377.036C379.116 132.932 380.754 133.192 381.95 133.712C383.198 134.232 384.108 135.116 384.68 136.364C384.94 136.936 385.122 137.534 385.226 138.158C385.33 138.73 385.382 139.744 385.382 141.2C385.434 142.604 385.46 144.398 385.46 146.582C385.46 148.714 385.434 150.456 385.382 151.808C385.382 153.16 385.33 154.07 385.226 154.538C385.174 155.006 385.07 155.448 384.914 155.864C384.342 157.112 383.042 157.892 381.014 158.204ZM377.348 153.914C377.452 153.55 377.53 152.9 377.582 151.964C377.634 151.028 377.66 149.39 377.66 147.05C377.66 145.074 377.634 143.67 377.582 142.838C377.53 141.954 377.426 141.304 377.27 140.888C377.062 140.524 376.776 140.264 376.412 140.108C376.1 139.952 375.658 139.874 375.086 139.874H373.682V154.772H375.476C375.944 154.772 376.308 154.72 376.568 154.616C376.88 154.46 377.14 154.226 377.348 153.914ZM407.617 132.932L401.143 188H393.187L386.713 132.932H394.123L397.165 174.662L400.207 132.932H407.617ZM409.452 132.932H423.492V140.264H417.252V154.538H423.258V161.87H417.252V180.668H423.492V188H409.452V132.932ZM441.19 158.204C442.802 158.464 443.92 159.088 444.544 160.076C445.22 161.012 445.558 162.494 445.558 164.522V188H437.758V163.898C437.758 163.118 437.602 162.598 437.29 162.338C436.978 162.026 436.484 161.87 435.808 161.87H433.858V188H426.058V132.932H437.212C439.292 132.932 440.93 133.192 442.126 133.712C443.374 134.232 444.284 135.116 444.856 136.364C445.116 136.936 445.298 137.534 445.402 138.158C445.506 138.73 445.558 139.744 445.558 141.2C445.61 142.604 445.636 144.398 445.636 146.582C445.636 148.714 445.61 150.456 445.558 151.808C445.558 153.16 445.506 154.07 445.402 154.538C445.35 155.006 445.246 155.448 445.09 155.864C444.518 157.112 443.218 157.892 441.19 158.204ZM437.524 153.914C437.628 153.55 437.706 152.9 437.758 151.964C437.81 151.028 437.836 149.39 437.836 147.05C437.836 145.074 437.81 143.67 437.758 142.838C437.706 141.954 437.602 141.304 437.446 140.888C437.238 140.524 436.952 140.264 436.588 140.108C436.276 139.952 435.834 139.874 435.262 139.874H433.858V154.772H435.652C436.12 154.772 436.484 154.72 436.744 154.616C437.056 154.46 437.316 154.226 437.524 153.914ZM457.879 188.624C455.539 188.624 453.667 188.312 452.263 187.688C450.859 187.012 449.819 185.946 449.143 184.49C448.779 183.762 448.545 183.086 448.441 182.462C448.337 181.786 448.259 180.512 448.207 178.64C448.155 176.768 448.129 174.324 448.129 171.308H455.851C455.851 174.584 455.851 176.872 455.851 178.172C455.903 179.472 455.981 180.278 456.085 180.59C456.397 181.266 456.969 181.604 457.801 181.604C458.737 181.604 459.309 181.266 459.517 180.59C459.621 180.226 459.699 179.628 459.751 178.796C459.803 177.912 459.829 176.43 459.829 174.35C459.829 171.958 459.777 170.32 459.673 169.436C459.621 168.552 459.439 167.746 459.127 167.018C458.815 166.342 458.373 165.718 457.801 165.146C457.229 164.574 456.423 163.95 455.383 163.274C453.719 162.13 452.419 161.116 451.483 160.232C450.599 159.296 449.923 158.308 449.455 157.268C448.883 156.072 448.519 154.746 448.363 153.29C448.259 151.834 448.207 149.39 448.207 145.958C448.207 144.19 448.233 142.708 448.285 141.512C448.337 140.264 448.415 139.328 448.519 138.704C448.675 138.028 448.909 137.326 449.221 136.598C449.897 135.09 450.911 133.998 452.263 133.322C453.667 132.646 455.487 132.308 457.723 132.308C460.063 132.308 461.935 132.646 463.339 133.322C464.743 133.946 465.783 134.986 466.459 136.442C466.719 137.118 466.901 137.768 467.005 138.392C467.161 139.016 467.239 140.264 467.239 142.136C467.291 143.956 467.317 146.348 467.317 149.312H459.751C459.751 146.14 459.725 143.904 459.673 142.604C459.673 141.304 459.621 140.524 459.517 140.264C459.361 139.9 459.153 139.666 458.893 139.562C458.633 139.406 458.269 139.328 457.801 139.328C456.917 139.328 456.371 139.666 456.163 140.342C456.111 140.654 456.059 141.2 456.007 141.98C456.007 142.76 456.007 144.086 456.007 145.958C456.007 148.298 456.033 149.884 456.085 150.716C456.137 151.548 456.319 152.302 456.631 152.978C456.943 153.654 457.385 154.278 457.957 154.85C458.529 155.37 459.335 155.968 460.375 156.644C461.987 157.684 463.261 158.672 464.197 159.608C465.133 160.544 465.835 161.558 466.303 162.65C466.719 163.534 467.005 164.392 467.161 165.224C467.369 166.056 467.473 167.252 467.473 168.812C467.525 170.32 467.551 172.166 467.551 174.35C467.551 176.274 467.525 177.912 467.473 179.264C467.473 180.564 467.395 181.552 467.239 182.228C467.135 182.904 466.927 183.606 466.615 184.334C465.315 187.194 462.403 188.624 457.879 188.624ZM470.466 132.932H484.506V140.264H478.266V154.538H484.272V161.87H478.266V180.668H484.506V188H470.466V132.932Z" fill="#DADADA"/>
<path fill-rule="evenodd" clip-rule="evenodd" d="M550 133H491V188H550V133ZM499.067 180.12C500.091 182.381 502.331 183.512 505.787 183.512C507.622 183.512 509.115 183.256 510.267 182.744C511.419 182.232 512.251 181.379 512.763 180.184C513.019 179.629 513.19 179.032 513.275 178.392C513.403 177.709 513.467 176.493 513.467 174.744C513.51 172.995 513.531 170.755 513.531 168.024C513.531 165.293 513.51 163.075 513.467 161.368C513.425 159.619 513.339 158.424 513.211 157.784C513.126 157.144 512.977 156.568 512.763 156.056C512.294 155.075 511.633 154.349 510.779 153.88C509.926 153.411 508.774 153.176 507.323 153.176C506.811 153.176 506.086 153.219 505.147 153.304L505.851 143.896H512.635L513.403 137.816H500.219L498.811 159.064C500.689 158.765 502.31 158.616 503.675 158.616C504.571 158.616 505.275 158.723 505.787 158.936C506.299 159.107 506.662 159.448 506.875 159.96C507.046 160.301 507.153 160.707 507.195 161.176C507.238 161.645 507.259 162.541 507.259 163.864C507.302 165.144 507.323 166.765 507.323 168.728C507.323 171.629 507.302 173.677 507.259 174.872C507.259 176.024 507.217 176.728 507.131 176.984C506.918 177.453 506.47 177.688 505.787 177.688C505.105 177.688 504.657 177.432 504.443 176.92C504.315 176.707 504.23 176.045 504.187 174.936V169.304H498.235C498.235 171.523 498.257 173.4 498.299 174.936C498.342 176.429 498.406 177.539 498.491 178.264C498.619 178.989 498.811 179.608 499.067 180.12ZM517.672 182.424C518.354 183.021 519.229 183.32 520.296 183.32C521.362 183.32 522.216 183.021 522.856 182.424C523.496 181.784 523.816 180.909 523.816 179.8C523.816 178.691 523.474 177.816 522.792 177.176C522.152 176.536 521.32 176.216 520.296 176.216C519.229 176.216 518.354 176.536 517.672 177.176C517.032 177.816 516.712 178.691 516.712 179.8C516.712 180.909 517.032 181.784 517.672 182.424ZM530.522 182.552C531.716 183.192 533.231 183.512 535.066 183.512C536.858 183.512 538.33 183.192 539.482 182.552C540.676 181.912 541.572 180.909 542.17 179.544C542.511 178.819 542.746 177.944 542.874 176.92C543.002 175.896 543.087 173.976 543.13 171.16C543.172 168.344 543.194 164.76 543.194 160.408C543.194 156.056 543.172 152.472 543.13 149.656C543.087 146.84 543.002 144.92 542.874 143.896C542.746 142.872 542.511 141.997 542.17 141.272C541.572 139.907 540.676 138.904 539.482 138.264C538.33 137.624 536.858 137.304 535.066 137.304C533.231 137.304 531.716 137.624 530.522 138.264C529.37 138.904 528.495 139.907 527.898 141.272C527.556 141.997 527.322 142.872 527.194 143.896C527.066 144.877 526.98 146.797 526.938 149.656V160.408V171.224C526.98 174.04 527.066 175.96 527.194 176.984C527.322 177.965 527.556 178.819 527.898 179.544C528.495 180.909 529.37 181.912 530.522 182.552ZM536.602 176.728C536.346 177.325 535.834 177.624 535.066 177.624C534.212 177.624 533.7 177.325 533.53 176.728C533.444 176.515 533.38 176.024 533.338 175.256C533.295 174.445 533.274 172.845 533.274 170.456V160.408V150.36C533.274 147.971 533.295 146.392 533.338 145.624C533.38 144.813 533.444 144.301 533.53 144.088C533.7 143.491 534.212 143.192 535.066 143.192C535.834 143.192 536.346 143.491 536.602 144.088C536.687 144.301 536.73 144.813 536.73 145.624C536.772 146.392 536.794 147.971 536.794 150.36V160.408V170.456C536.794 172.845 536.772 174.445 536.73 175.256C536.73 176.024 536.687 176.515 536.602 176.728Z" fill="#D9D9D9"/>
<path d="M257.95 106.844L265.516 80.324C266.244 77.776 266.738 75.852 266.998 74.552C267.31 73.2 267.492 71.952 267.544 70.808C267.648 69.612 267.7 67.818 267.7 65.426C267.7 63.398 267.7 61.812 267.7 60.668C267.7 59.472 267.674 58.666 267.622 58.25C267.57 57.782 267.466 57.392 267.31 57.08C266.946 56.196 266.088 55.754 264.736 55.754C264.06 55.754 263.488 55.884 263.02 56.144C262.604 56.352 262.292 56.716 262.084 57.236C261.876 57.704 261.746 58.744 261.694 60.356C261.694 61.968 261.694 64.49 261.694 67.922H257.326C257.326 65.114 257.326 62.774 257.326 60.902C257.378 59.03 257.456 57.704 257.56 56.924C257.716 56.092 257.95 55.364 258.262 54.74C259.25 52.504 261.434 51.386 264.814 51.386C266.582 51.386 268.012 51.698 269.104 52.322C270.196 52.894 271.002 53.778 271.522 54.974C271.834 55.702 272.016 56.612 272.068 57.704C272.172 58.796 272.224 61.084 272.224 64.568C272.224 67.844 272.068 70.496 271.756 72.524C271.444 74.552 270.794 77.308 269.806 80.792L263.722 102.71H272.146V107H257.95V106.844ZM293.326 92.96H289.816V107H285.37V92.96H273.982V92.882L281.626 51.932H289.816V88.592H293.326V92.96ZM285.37 88.592V54.194H285.292L278.896 88.592H285.37ZM304.357 51.932H308.881V74.63H315.823V51.932H320.347V107H315.823V78.998H308.881V107H304.357V51.932ZM333.559 107.546C329.919 107.546 327.553 106.142 326.461 103.334C326.149 102.554 325.915 101.54 325.759 100.292C325.655 98.992 325.577 96.574 325.525 93.038C325.525 89.45 325.525 84.926 325.525 79.466C325.525 73.694 325.551 69.014 325.603 65.426C325.655 61.786 325.733 59.394 325.837 58.25C325.993 57.054 326.253 56.04 326.617 55.208C327.761 52.66 330.075 51.386 333.559 51.386C335.379 51.386 336.835 51.724 337.927 52.4C339.071 53.076 339.929 54.064 340.501 55.364C340.865 56.144 341.099 57.132 341.203 58.328C341.359 59.524 341.437 61.942 341.437 65.582C341.489 69.17 341.515 73.798 341.515 79.466C341.515 85.238 341.489 89.944 341.437 93.584C341.437 97.172 341.359 99.564 341.203 100.76C341.099 101.904 340.865 102.892 340.501 103.724C339.877 105.024 338.993 105.986 337.849 106.61C336.705 107.234 335.275 107.546 333.559 107.546ZM333.559 103.178C335.015 103.178 336.003 102.632 336.523 101.54C336.679 101.072 336.783 100.396 336.835 99.512C336.887 98.628 336.913 96.47 336.913 93.038C336.965 89.606 336.991 85.082 336.991 79.466C336.991 73.85 336.965 69.326 336.913 65.894C336.913 62.462 336.887 60.304 336.835 59.42C336.783 58.536 336.679 57.86 336.523 57.392C336.003 56.3 335.015 55.754 333.559 55.754C332.051 55.754 331.063 56.3 330.595 57.392C330.387 57.86 330.257 58.536 330.205 59.42C330.153 60.304 330.101 62.462 330.049 65.894C330.049 69.326 330.049 73.85 330.049 79.466C330.049 85.082 330.049 89.606 330.049 93.038C330.101 96.47 330.153 98.628 330.205 99.512C330.257 100.396 330.387 101.072 330.595 101.54C331.063 102.632 332.051 103.178 333.559 103.178ZM354.587 107.546C351.727 107.546 349.673 106.792 348.425 105.284C347.177 103.776 346.553 101.54 346.553 98.576V51.932H351.155V98.498C351.155 100.11 351.389 101.306 351.857 102.086C352.377 102.814 353.287 103.178 354.587 103.178C355.887 103.178 356.771 102.814 357.239 102.086C357.759 101.306 358.019 100.11 358.019 98.498V51.932H362.543V98.576C362.543 101.592 361.919 103.854 360.671 105.362C359.475 106.818 357.447 107.546 354.587 107.546ZM379.348 76.892C380.752 77.1 381.74 77.62 382.312 78.452C382.884 79.284 383.17 80.558 383.17 82.274V107H378.646V81.962C378.646 80.87 378.412 80.116 377.944 79.7C377.476 79.232 376.722 78.998 375.682 78.998H372.484V107H367.96V51.932H375.838C377.71 51.932 379.166 52.166 380.206 52.634C381.298 53.102 382.078 53.856 382.546 54.896C382.806 55.468 382.988 56.066 383.092 56.69C383.196 57.262 383.248 58.25 383.248 59.654C383.3 61.058 383.326 62.852 383.326 65.036C383.326 67.272 383.3 69.118 383.248 70.574C383.248 71.978 383.196 72.94 383.092 73.46C383.04 73.928 382.936 74.37 382.78 74.786C382.52 75.358 382.104 75.826 381.532 76.19C381.012 76.502 380.284 76.736 379.348 76.892ZM375.682 74.63C376.358 74.63 376.93 74.552 377.398 74.396C377.866 74.188 378.204 73.85 378.412 73.382C378.568 72.966 378.672 72.212 378.724 71.12C378.776 69.976 378.802 68.078 378.802 65.426C378.802 63.71 378.776 62.306 378.724 61.214C378.724 60.122 378.672 59.394 378.568 59.03C378.516 58.614 378.412 58.224 378.256 57.86C377.996 57.288 377.58 56.898 377.008 56.69C376.488 56.43 375.76 56.3 374.824 56.3H372.484V74.63H375.682ZM396.068 51.932H400.592V102.632H406.364V107H396.068V51.932ZM416.587 107.546C412.947 107.546 410.581 106.142 409.489 103.334C409.177 102.554 408.943 101.54 408.787 100.292C408.683 98.992 408.605 96.574 408.553 93.038C408.553 89.45 408.553 84.926 408.553 79.466C408.553 73.694 408.579 69.014 408.631 65.426C408.683 61.786 408.761 59.394 408.865 58.25C409.021 57.054 409.281 56.04 409.645 55.208C410.789 52.66 413.103 51.386 416.587 51.386C418.407 51.386 419.863 51.724 420.955 52.4C422.099 53.076 422.957 54.064 423.529 55.364C423.893 56.144 424.127 57.132 424.231 58.328C424.387 59.524 424.465 61.942 424.465 65.582C424.517 69.17 424.543 73.798 424.543 79.466C424.543 85.238 424.517 89.944 424.465 93.584C424.465 97.172 424.387 99.564 424.231 100.76C424.127 101.904 423.893 102.892 423.529 103.724C422.905 105.024 422.021 105.986 420.877 106.61C419.733 107.234 418.303 107.546 416.587 107.546ZM416.587 103.178C418.043 103.178 419.031 102.632 419.551 101.54C419.707 101.072 419.811 100.396 419.863 99.512C419.915 98.628 419.941 96.47 419.941 93.038C419.993 89.606 420.019 85.082 420.019 79.466C420.019 73.85 419.993 69.326 419.941 65.894C419.941 62.462 419.915 60.304 419.863 59.42C419.811 58.536 419.707 57.86 419.551 57.392C419.031 56.3 418.043 55.754 416.587 55.754C415.079 55.754 414.091 56.3 413.623 57.392C413.415 57.86 413.285 58.536 413.233 59.42C413.181 60.304 413.129 62.462 413.077 65.894C413.077 69.326 413.077 73.85 413.077 79.466C413.077 85.082 413.077 89.606 413.077 93.038C413.129 96.47 413.181 98.628 413.233 99.512C413.285 100.396 413.415 101.072 413.623 101.54C414.091 102.632 415.079 103.178 416.587 103.178ZM429.736 51.932H435.43L443.386 95.768V51.932H447.754V107H442.216L434.026 62.15V107H429.736V51.932ZM468.875 80.48V82.898C468.875 87.942 468.849 91.998 468.797 95.066C468.745 98.134 468.641 100.162 468.485 101.15C468.381 102.086 468.173 102.944 467.861 103.724C466.717 106.272 464.403 107.546 460.919 107.546C457.435 107.546 455.121 106.272 453.977 103.724C453.613 102.892 453.353 101.852 453.197 100.604C453.093 99.356 453.015 96.938 452.963 93.35C452.911 89.71 452.885 85.082 452.885 79.466C452.885 73.85 452.911 69.248 452.963 65.66C453.015 62.02 453.093 59.576 453.197 58.328C453.353 57.08 453.613 56.04 453.977 55.208C455.121 52.66 457.435 51.386 460.919 51.386C463.155 51.386 464.949 51.984 466.301 53.18C467.081 53.908 467.627 54.792 467.939 55.832C468.303 56.82 468.511 58.146 468.563 59.81C468.667 61.422 468.719 64.126 468.719 67.922H464.351V64.1C464.351 61.552 464.273 59.758 464.117 58.718C464.013 57.678 463.701 56.95 463.181 56.534C462.661 56.014 461.907 55.754 460.919 55.754C459.411 55.754 458.423 56.326 457.955 57.47C457.747 57.886 457.617 58.562 457.565 59.498C457.513 60.434 457.461 62.618 457.409 66.05C457.409 69.482 457.409 73.954 457.409 79.466C457.409 84.978 457.409 89.45 457.409 92.882C457.461 96.314 457.513 98.498 457.565 99.434C457.617 100.37 457.747 101.046 457.955 101.462C458.423 102.606 459.411 103.178 460.919 103.178C461.647 103.178 462.245 103.048 462.713 102.788C463.233 102.528 463.623 102.138 463.883 101.618C464.039 101.202 464.143 100.682 464.195 100.058C464.247 99.434 464.273 97.822 464.273 95.222C464.325 92.622 464.351 89.164 464.351 84.848H460.997V80.48H468.875ZM481.761 51.932H486.285V74.63H493.227V51.932H497.751V107H493.227V78.998H486.285V107H481.761V51.932ZM513.85 95.846H506.128L505.114 107H500.668L506.44 51.932H513.538L519.31 107H514.942L513.85 95.846ZM513.46 91.556L510.028 56.222H509.872L506.596 91.556H513.46ZM529.702 107.546C526.218 107.546 523.904 106.272 522.76 103.724C522.396 102.892 522.136 101.852 521.98 100.604C521.876 99.356 521.798 96.938 521.746 93.35C521.694 89.71 521.668 85.082 521.668 79.466C521.668 73.85 521.694 69.248 521.746 65.66C521.798 62.02 521.876 59.576 521.98 58.328C522.136 57.08 522.396 56.04 522.76 55.208C523.904 52.66 526.218 51.386 529.702 51.386C531.886 51.386 533.68 52.01 535.084 53.258C535.864 53.986 536.436 54.87 536.8 55.91C537.164 56.898 537.372 58.224 537.424 59.888C537.528 61.552 537.58 64.23 537.58 67.922H533.134C533.134 65.322 533.108 63.164 533.056 61.448C533.004 59.732 532.9 58.562 532.744 57.938C532.588 57.314 532.328 56.846 531.964 56.534C531.34 56.014 530.586 55.754 529.702 55.754C528.194 55.754 527.206 56.326 526.738 57.47C526.53 57.886 526.4 58.562 526.348 59.498C526.296 60.434 526.244 62.618 526.192 66.05C526.192 69.482 526.192 73.954 526.192 79.466C526.192 84.978 526.192 89.45 526.192 92.882C526.244 96.314 526.296 98.498 526.348 99.434C526.4 100.37 526.53 101.046 526.738 101.462C527.206 102.606 528.194 103.178 529.702 103.178C530.586 103.178 531.34 102.918 531.964 102.398C532.328 102.086 532.588 101.618 532.744 100.994C532.9 100.318 533.004 99.096 533.056 97.328C533.108 95.508 533.134 93.22 533.134 90.464H537.58C537.58 94.26 537.528 97.068 537.424 98.888C537.32 100.656 537.086 102.06 536.722 103.1C536.41 104.14 535.838 105.024 535.006 105.752C533.706 106.948 531.938 107.546 529.702 107.546ZM554.638 107L546.994 78.92V107H542.47V51.932H546.994V76.58L553.624 51.932H558.226L551.206 77.672L559.318 107H554.638ZM573.492 95.846H565.77L564.756 107H560.31L566.082 51.932H573.18L578.952 107H574.584L573.492 95.846ZM573.102 91.556L569.67 56.222H569.514L566.238 91.556H573.102ZM582.439 56.3H577.681V51.932H591.721V56.3H586.963V107H582.439V56.3ZM594.8 51.932H599.324V74.63H606.266V51.932H610.79V107H606.266V78.998H599.324V107H594.8V51.932ZM624.003 107.546C620.363 107.546 617.997 106.142 616.905 103.334C616.593 102.554 616.359 101.54 616.203 100.292C616.099 98.992 616.021 96.574 615.969 93.038C615.969 89.45 615.969 84.926 615.969 79.466C615.969 73.694 615.995 69.014 616.047 65.426C616.099 61.786 616.177 59.394 616.281 58.25C616.437 57.054 616.697 56.04 617.061 55.208C618.205 52.66 620.519 51.386 624.003 51.386C625.823 51.386 627.279 51.724 628.371 52.4C629.515 53.076 630.373 54.064 630.945 55.364C631.309 56.144 631.543 57.132 631.647 58.328C631.803 59.524 631.881 61.942 631.881 65.582C631.933 69.17 631.959 73.798 631.959 79.466C631.959 85.238 631.933 89.944 631.881 93.584C631.881 97.172 631.803 99.564 631.647 100.76C631.543 101.904 631.309 102.892 630.945 103.724C630.321 105.024 629.437 105.986 628.293 106.61C627.149 107.234 625.719 107.546 624.003 107.546ZM624.003 103.178C625.459 103.178 626.447 102.632 626.967 101.54C627.123 101.072 627.227 100.396 627.279 99.512C627.331 98.628 627.357 96.47 627.357 93.038C627.409 89.606 627.435 85.082 627.435 79.466C627.435 73.85 627.409 69.326 627.357 65.894C627.357 62.462 627.331 60.304 627.279 59.42C627.227 58.536 627.123 57.86 626.967 57.392C626.447 56.3 625.459 55.754 624.003 55.754C622.495 55.754 621.507 56.3 621.039 57.392C620.831 57.86 620.701 58.536 620.649 59.42C620.597 60.304 620.545 62.462 620.493 65.894C620.493 69.326 620.493 73.85 620.493 79.466C620.493 85.082 620.493 89.606 620.493 93.038C620.545 96.47 620.597 98.628 620.649 99.512C620.701 100.396 620.831 101.072 621.039 101.54C621.507 102.632 622.495 103.178 624.003 103.178ZM637.152 51.932H642.846L650.802 95.768V51.932H655.17V107H649.632L641.442 62.15V107H637.152V51.932Z" fill="#DADADA"/>
<path fill-rule="evenodd" clip-rule="evenodd" d="M246 17H6V196H246V17ZM40.7607 25.62H17.7607V188H39.6107V87.49L61.6907 188H83.5407V25.62H61.4607V121.76L40.7607 25.62ZM117.128 25.62H94.1279V188H117.128V25.62ZM123.449 47.24H135.869V188H158.639V47.24H171.059V25.62H123.449V47.24ZM200.233 107.73L216.563 188H239.333L220.473 100.83L237.263 25.62H214.033L200.233 93.93V25.62H177.233V188H200.233V107.73Z" fill="#D9D9D9"/>
</svg>
