<svg xmlns="http://www.w3.org/2000/svg" width="763" height="211" fill="none" viewBox="0 0 763 211"><path fill="#DADADA" d="M259.105 100.69H272.605V138.085H280.03V100.69H293.395V196H280.03V150.775H272.605V196H259.105V100.69ZM321.175 180.745H310.915L309.835 196H296.74L305.515 100.69H326.575L335.35 196H322.255L321.175 180.745ZM320.23 168.325L316.18 112.435H315.91L311.86 168.325H320.23ZM354.95 197.08C351.08 197.08 347.885 196.405 345.365 195.055C342.935 193.705 341.09 191.59 339.83 188.71C339.11 187.18 338.615 185.38 338.345 183.31C338.075 181.15 337.895 177.1 337.805 171.16C337.805 165.13 337.805 157.525 337.805 148.345C337.805 139.165 337.805 131.605 337.805 125.665C337.895 119.635 338.075 115.585 338.345 113.515C338.615 111.355 339.11 109.51 339.83 107.98C341.09 105.1 342.935 102.985 345.365 101.635C347.885 100.285 351.08 99.61 354.95 99.61C359.9 99.61 363.815 100.915 366.695 103.525C368.315 105.055 369.485 106.81 370.205 108.79C371.015 110.68 371.51 113.065 371.69 115.945C371.87 118.825 371.96 123.19 371.96 129.04H358.595C358.595 125.08 358.55 121.885 358.46 119.455C358.46 116.935 358.37 115.315 358.19 114.595C358.1 113.785 357.83 113.2 357.38 112.84C356.66 112.3 355.85 112.03 354.95 112.03C353.15 112.03 352.07 112.66 351.71 113.92C351.53 114.37 351.395 115.45 351.305 117.16C351.215 118.78 351.17 122.11 351.17 127.15C351.17 132.19 351.17 139.255 351.17 148.345C351.17 157.435 351.17 164.5 351.17 169.54C351.17 174.58 351.215 177.955 351.305 179.665C351.395 181.285 351.53 182.32 351.71 182.77C352.07 184.03 353.15 184.66 354.95 184.66C355.85 184.66 356.66 184.39 357.38 183.85C357.83 183.49 358.1 182.95 358.19 182.23C358.37 181.42 358.46 179.71 358.46 177.1C358.55 174.49 358.595 171.16 358.595 167.11H371.96C371.96 172.69 371.825 177.055 371.555 180.205C371.285 183.355 370.745 186.01 369.935 188.17C369.215 190.24 368.09 191.995 366.56 193.435C363.86 195.865 359.99 197.08 354.95 197.08ZM400.579 196L390.994 148.885V196H377.494V100.69H390.994V140.785L399.094 100.69H412.729L402.874 144.835L413.944 196H400.579ZM417.44 100.69H441.74V113.38H430.94V138.085H441.335V150.775H430.94V183.31H441.74V196H417.44V100.69ZM472.37 144.43C475.16 144.88 477.095 145.96 478.175 147.67C479.345 149.29 479.93 151.855 479.93 155.365V196H466.43V154.285C466.43 152.935 466.16 152.035 465.62 151.585C465.08 151.045 464.225 150.775 463.055 150.775H459.68V196H446.18V100.69H465.485C469.085 100.69 471.92 101.14 473.99 102.04C476.15 102.94 477.725 104.47 478.715 106.63C479.165 107.62 479.48 108.655 479.66 109.735C479.84 110.725 479.93 112.48 479.93 115C480.02 117.43 480.065 120.535 480.065 124.315C480.065 128.005 480.02 131.02 479.93 133.36C479.93 135.7 479.84 137.275 479.66 138.085C479.57 138.895 479.39 139.66 479.12 140.38C478.13 142.54 475.88 143.89 472.37 144.43ZM466.025 137.005C466.205 136.375 466.34 135.25 466.43 133.63C466.52 132.01 466.565 129.175 466.565 125.125C466.565 121.705 466.52 119.275 466.43 117.835C466.34 116.305 466.16 115.18 465.89 114.46C465.53 113.83 465.035 113.38 464.405 113.11C463.865 112.84 463.1 112.705 462.11 112.705H459.68V138.49H462.785C463.595 138.49 464.225 138.4 464.675 138.22C465.215 137.95 465.665 137.545 466.025 137.005ZM518.414 100.69L507.209 196H493.439L482.234 100.69H495.059L500.324 172.915L505.589 100.69H518.414ZM521.59 100.69H545.89V113.38H535.09V138.085H545.485V150.775H535.09V183.31H545.89V196H521.59V100.69ZM576.521 144.43C579.311 144.88 581.246 145.96 582.326 147.67C583.496 149.29 584.081 151.855 584.081 155.365V196H570.581V154.285C570.581 152.935 570.311 152.035 569.771 151.585C569.231 151.045 568.376 150.775 567.206 150.775H563.831V196H550.331V100.69H569.636C573.236 100.69 576.071 101.14 578.141 102.04C580.301 102.94 581.876 104.47 582.866 106.63C583.316 107.62 583.631 108.655 583.811 109.735C583.991 110.725 584.081 112.48 584.081 115C584.171 117.43 584.216 120.535 584.216 124.315C584.216 128.005 584.171 131.02 584.081 133.36C584.081 135.7 583.991 137.275 583.811 138.085C583.721 138.895 583.541 139.66 583.271 140.38C582.281 142.54 580.031 143.89 576.521 144.43ZM570.176 137.005C570.356 136.375 570.491 135.25 570.581 133.63C570.671 132.01 570.716 129.175 570.716 125.125C570.716 121.705 570.671 119.275 570.581 117.835C570.491 116.305 570.311 115.18 570.041 114.46C569.681 113.83 569.186 113.38 568.556 113.11C568.016 112.84 567.251 112.705 566.261 112.705H563.831V138.49H566.936C567.746 138.49 568.376 138.4 568.826 138.22C569.366 137.95 569.816 137.545 570.176 137.005ZM605.406 197.08C601.356 197.08 598.116 196.54 595.686 195.46C593.256 194.29 591.456 192.445 590.286 189.925C589.656 188.665 589.251 187.495 589.071 186.415C588.891 185.245 588.756 183.04 588.666 179.8C588.576 176.56 588.531 172.33 588.531 167.11H601.896C601.896 172.78 601.896 176.74 601.896 178.99C601.986 181.24 602.121 182.635 602.301 183.175C602.841 184.345 603.831 184.93 605.271 184.93C606.891 184.93 607.881 184.345 608.241 183.175C608.421 182.545 608.556 181.51 608.646 180.07C608.736 178.54 608.781 175.975 608.781 172.375C608.781 168.235 608.691 165.4 608.511 163.87C608.421 162.34 608.106 160.945 607.566 159.685C607.026 158.515 606.261 157.435 605.271 156.445C604.281 155.455 602.886 154.375 601.086 153.205C598.206 151.225 595.956 149.47 594.336 147.94C592.806 146.32 591.636 144.61 590.826 142.81C589.836 140.74 589.206 138.445 588.936 135.925C588.756 133.405 588.666 129.175 588.666 123.235C588.666 120.175 588.711 117.61 588.801 115.54C588.891 113.38 589.026 111.76 589.206 110.68C589.476 109.51 589.881 108.295 590.421 107.035C591.591 104.425 593.346 102.535 595.686 101.365C598.116 100.195 601.266 99.61 605.136 99.61C609.186 99.61 612.426 100.195 614.856 101.365C617.286 102.445 619.086 104.245 620.256 106.765C620.706 107.935 621.021 109.06 621.201 110.14C621.471 111.22 621.606 113.38 621.606 116.62C621.696 119.77 621.741 123.91 621.741 129.04H608.646C608.646 123.55 608.601 119.68 608.511 117.43C608.511 115.18 608.421 113.83 608.241 113.38C607.971 112.75 607.611 112.345 607.161 112.165C606.711 111.895 606.081 111.76 605.271 111.76C603.741 111.76 602.796 112.345 602.436 113.515C602.346 114.055 602.256 115 602.166 116.35C602.166 117.7 602.166 119.995 602.166 123.235C602.166 127.285 602.211 130.03 602.301 131.47C602.391 132.91 602.706 134.215 603.246 135.385C603.786 136.555 604.551 137.635 605.541 138.625C606.531 139.525 607.926 140.56 609.726 141.73C612.516 143.53 614.721 145.24 616.341 146.86C617.961 148.48 619.176 150.235 619.986 152.125C620.706 153.655 621.201 155.14 621.471 156.58C621.831 158.02 622.011 160.09 622.011 162.79C622.101 165.4 622.146 168.595 622.146 172.375C622.146 175.705 622.101 178.54 622.011 180.88C622.011 183.13 621.876 184.84 621.606 186.01C621.426 187.18 621.066 188.395 620.526 189.655C618.276 194.605 613.236 197.08 605.406 197.08ZM627.191 100.69H651.491V113.38H640.691V138.085H651.086V150.775H640.691V183.31H651.491V196H627.191V100.69Z"/><path fill="#D9D9D9" fill-rule="evenodd" d="M759 100H664V196H759V100ZM670.876 185.6C672.796 189.84 676.996 191.96 683.476 191.96C686.916 191.96 689.716 191.48 691.876 190.52C694.036 189.56 695.596 187.96 696.556 185.72C697.036 184.68 697.356 183.56 697.516 182.36C697.756 181.08 697.876 178.8 697.876 175.52C697.956 172.24 697.996 168.04 697.996 162.92C697.996 157.8 697.956 153.64 697.876 150.44C697.796 147.16 697.636 144.92 697.396 143.72C697.236 142.52 696.956 141.44 696.556 140.48C695.676 138.64 694.436 137.28 692.836 136.4C691.236 135.52 689.076 135.08 686.356 135.08C685.396 135.08 684.036 135.16 682.276 135.32L683.596 117.68H696.316L697.756 106.28H673.036L670.396 146.12C673.916 145.56 676.956 145.28 679.516 145.28C681.196 145.28 682.516 145.48 683.476 145.88C684.436 146.2 685.116 146.84 685.516 147.8C685.836 148.44 686.036 149.2 686.116 150.08C686.196 150.96 686.236 152.64 686.236 155.12C686.316 157.52 686.356 160.56 686.356 164.24C686.356 169.68 686.316 173.52 686.236 175.76C686.236 177.92 686.156 179.24 685.996 179.72C685.596 180.6 684.756 181.04 683.476 181.04C682.196 181.04 681.356 180.56 680.956 179.6C680.716 179.2 680.556 177.96 680.476 175.88V165.32H669.316C669.316 169.48 669.356 173 669.436 175.88C669.516 178.68 669.636 180.76 669.796 182.12C670.036 183.48 670.396 184.64 670.876 185.6ZM705.76 189.92C707.04 191.04 708.68 191.6 710.68 191.6C712.68 191.6 714.28 191.04 715.48 189.92C716.68 188.72 717.28 187.08 717.28 185C717.28 182.92 716.64 181.28 715.36 180.08C714.16 178.88 712.6 178.28 710.68 178.28C708.68 178.28 707.04 178.88 705.76 180.08C704.56 181.28 703.96 182.92 703.96 185C703.96 187.08 704.56 188.72 705.76 189.92ZM729.853 190.16C732.093 191.36 734.933 191.96 738.373 191.96C741.733 191.96 744.493 191.36 746.653 190.16C748.893 188.96 750.573 187.08 751.693 184.52C752.333 183.16 752.773 181.52 753.013 179.6C753.253 177.68 753.413 174.08 753.493 168.8C753.573 163.52 753.613 156.8 753.613 148.64C753.613 140.48 753.573 133.76 753.493 128.48C753.413 123.2 753.253 119.6 753.013 117.68C752.773 115.76 752.333 114.12 751.693 112.76C750.573 110.2 748.893 108.32 746.653 107.12C744.493 105.92 741.733 105.32 738.373 105.32C734.933 105.32 732.093 105.92 729.853 107.12C727.693 108.32 726.053 110.2 724.933 112.76C724.293 114.12 723.853 115.76 723.613 117.68C723.373 119.52 723.213 123.12 723.133 128.48V148.64V168.92C723.213 174.2 723.373 177.8 723.613 179.72C723.853 181.56 724.293 183.16 724.933 184.52C726.053 187.08 727.693 188.96 729.853 190.16ZM741.253 179.24C740.773 180.36 739.813 180.92 738.373 180.92C736.773 180.92 735.813 180.36 735.493 179.24C735.333 178.84 735.213 177.92 735.133 176.48C735.053 174.96 735.013 171.96 735.013 167.48V148.64V129.8C735.013 125.32 735.053 122.36 735.133 120.92C735.213 119.4 735.333 118.44 735.493 118.04C735.813 116.92 736.773 116.36 738.373 116.36C739.813 116.36 740.773 116.92 741.253 118.04C741.413 118.44 741.493 119.4 741.493 120.92C741.573 122.36 741.613 125.32 741.613 129.8V148.64V167.48C741.613 171.96 741.573 174.96 741.493 176.48C741.493 177.92 741.413 178.84 741.253 179.24Z" clip-rule="evenodd"/><path fill="#B2B2B2" d="M258.125 82.83L266.37 53.93C267.163 51.1533 267.702 49.0567 267.985 47.64C268.325 46.1667 268.523 44.8067 268.58 43.56C268.693 42.2567 268.75 40.3017 268.75 37.695C268.75 35.485 268.75 33.7567 268.75 32.51C268.75 31.2067 268.722 30.3283 268.665 29.875C268.608 29.365 268.495 28.94 268.325 28.6C267.928 27.6367 266.993 27.155 265.52 27.155C264.783 27.155 264.16 27.2967 263.65 27.58C263.197 27.8067 262.857 28.2033 262.63 28.77C262.403 29.28 262.262 30.4133 262.205 32.17C262.205 33.9267 262.205 36.675 262.205 40.415H257.445C257.445 37.355 257.445 34.805 257.445 32.765C257.502 30.725 257.587 29.28 257.7 28.43C257.87 27.5233 258.125 26.73 258.465 26.05C259.542 23.6133 261.922 22.395 265.605 22.395C267.532 22.395 269.09 22.735 270.28 23.415C271.47 24.0383 272.348 25.0017 272.915 26.305C273.255 27.0983 273.453 28.09 273.51 29.28C273.623 30.47 273.68 32.9633 273.68 36.76C273.68 40.33 273.51 43.22 273.17 45.43C272.83 47.64 272.122 50.6433 271.045 54.44L264.415 78.325H273.595V83H258.125V82.83ZM297.101 67.7H293.276V83H288.431V67.7H276.021V67.615L284.351 22.99H293.276V62.94H297.101V67.7ZM288.431 62.94V25.455H288.346L281.376 62.94H288.431ZM309.972 22.99H314.902V47.725H322.467V22.99H327.397V83H322.467V52.485H314.902V83H309.972V22.99ZM342.22 83.595C338.253 83.595 335.675 82.065 334.485 79.005C334.145 78.155 333.89 77.05 333.72 75.69C333.607 74.2733 333.522 71.6383 333.465 67.785C333.465 63.875 333.465 58.945 333.465 52.995C333.465 46.705 333.493 41.605 333.55 37.695C333.607 33.7283 333.692 31.1217 333.805 29.875C333.975 28.5717 334.258 27.4667 334.655 26.56C335.902 23.7833 338.423 22.395 342.22 22.395C344.203 22.395 345.79 22.7633 346.98 23.5C348.227 24.2367 349.162 25.3133 349.785 26.73C350.182 27.58 350.437 28.6567 350.55 29.96C350.72 31.2633 350.805 33.8983 350.805 37.865C350.862 41.775 350.89 46.8183 350.89 52.995C350.89 59.285 350.862 64.4133 350.805 68.38C350.805 72.29 350.72 74.8967 350.55 76.2C350.437 77.4467 350.182 78.5233 349.785 79.43C349.105 80.8467 348.142 81.895 346.895 82.575C345.648 83.255 344.09 83.595 342.22 83.595ZM342.22 78.835C343.807 78.835 344.883 78.24 345.45 77.05C345.62 76.54 345.733 75.8033 345.79 74.84C345.847 73.8767 345.875 71.525 345.875 67.785C345.932 64.045 345.96 59.115 345.96 52.995C345.96 46.875 345.932 41.945 345.875 38.205C345.875 34.465 345.847 32.1133 345.79 31.15C345.733 30.1867 345.62 29.45 345.45 28.94C344.883 27.75 343.807 27.155 342.22 27.155C340.577 27.155 339.5 27.75 338.99 28.94C338.763 29.45 338.622 30.1867 338.565 31.15C338.508 32.1133 338.452 34.465 338.395 38.205C338.395 41.945 338.395 46.875 338.395 52.995C338.395 59.115 338.395 64.045 338.395 67.785C338.452 71.525 338.508 73.8767 338.565 74.84C338.622 75.8033 338.763 76.54 338.99 77.05C339.5 78.24 340.577 78.835 342.22 78.835ZM365.559 83.595C362.442 83.595 360.204 82.7733 358.844 81.13C357.484 79.4867 356.804 77.05 356.804 73.82V22.99H361.819V73.735C361.819 75.4917 362.074 76.795 362.584 77.645C363.151 78.4383 364.142 78.835 365.559 78.835C366.976 78.835 367.939 78.4383 368.449 77.645C369.016 76.795 369.299 75.4917 369.299 73.735V22.99H374.229V73.82C374.229 77.1067 373.549 79.5717 372.189 81.215C370.886 82.8017 368.676 83.595 365.559 83.595ZM392.968 50.19C394.498 50.4167 395.575 50.9833 396.198 51.89C396.822 52.7967 397.133 54.185 397.133 56.055V83H392.203V55.715C392.203 54.525 391.948 53.7033 391.438 53.25C390.928 52.74 390.107 52.485 388.973 52.485H385.488V83H380.558V22.99H389.143C391.183 22.99 392.77 23.245 393.903 23.755C395.093 24.265 395.943 25.0867 396.453 26.22C396.737 26.8433 396.935 27.495 397.048 28.175C397.162 28.7983 397.218 29.875 397.218 31.405C397.275 32.935 397.303 34.89 397.303 37.27C397.303 39.7067 397.275 41.7183 397.218 43.305C397.218 44.835 397.162 45.8833 397.048 46.45C396.992 46.96 396.878 47.4417 396.708 47.895C396.425 48.5183 395.972 49.0283 395.348 49.425C394.782 49.765 393.988 50.02 392.968 50.19ZM388.973 47.725C389.71 47.725 390.333 47.64 390.843 47.47C391.353 47.2433 391.722 46.875 391.948 46.365C392.118 45.9117 392.232 45.09 392.288 43.9C392.345 42.6533 392.373 40.585 392.373 37.695C392.373 35.825 392.345 34.295 392.288 33.105C392.288 31.915 392.232 31.1217 392.118 30.725C392.062 30.2717 391.948 29.8467 391.778 29.45C391.495 28.8267 391.042 28.4017 390.418 28.175C389.852 27.8917 389.058 27.75 388.038 27.75H385.488V47.725H388.973ZM412.038 22.99H416.968V78.24H423.258V83H412.038V22.99ZM434.823 83.595C430.857 83.595 428.278 82.065 427.088 79.005C426.748 78.155 426.493 77.05 426.323 75.69C426.21 74.2733 426.125 71.6383 426.068 67.785C426.068 63.875 426.068 58.945 426.068 52.995C426.068 46.705 426.097 41.605 426.153 37.695C426.21 33.7283 426.295 31.1217 426.408 29.875C426.578 28.5717 426.862 27.4667 427.258 26.56C428.505 23.7833 431.027 22.395 434.823 22.395C436.807 22.395 438.393 22.7633 439.583 23.5C440.83 24.2367 441.765 25.3133 442.388 26.73C442.785 27.58 443.04 28.6567 443.153 29.96C443.323 31.2633 443.408 33.8983 443.408 37.865C443.465 41.775 443.493 46.8183 443.493 52.995C443.493 59.285 443.465 64.4133 443.408 68.38C443.408 72.29 443.323 74.8967 443.153 76.2C443.04 77.4467 442.785 78.5233 442.388 79.43C441.708 80.8467 440.745 81.895 439.498 82.575C438.252 83.255 436.693 83.595 434.823 83.595ZM434.823 78.835C436.41 78.835 437.487 78.24 438.053 77.05C438.223 76.54 438.337 75.8033 438.393 74.84C438.45 73.8767 438.478 71.525 438.478 67.785C438.535 64.045 438.563 59.115 438.563 52.995C438.563 46.875 438.535 41.945 438.478 38.205C438.478 34.465 438.45 32.1133 438.393 31.15C438.337 30.1867 438.223 29.45 438.053 28.94C437.487 27.75 436.41 27.155 434.823 27.155C433.18 27.155 432.103 27.75 431.593 28.94C431.367 29.45 431.225 30.1867 431.168 31.15C431.112 32.1133 431.055 34.465 430.998 38.205C430.998 41.945 430.998 46.875 430.998 52.995C430.998 59.115 430.998 64.045 430.998 67.785C431.055 71.525 431.112 73.8767 431.168 74.84C431.225 75.8033 431.367 76.54 431.593 77.05C432.103 78.24 433.18 78.835 434.823 78.835ZM449.578 22.99H455.783L464.453 70.76V22.99H469.213V83H463.178L454.253 34.125V83H449.578V22.99ZM492.654 54.1V56.735C492.654 62.2317 492.626 66.6517 492.569 69.995C492.512 73.3383 492.399 75.5483 492.229 76.625C492.116 77.645 491.889 78.58 491.549 79.43C490.302 82.2067 487.781 83.595 483.984 83.595C480.187 83.595 477.666 82.2067 476.419 79.43C476.022 78.5233 475.739 77.39 475.569 76.03C475.456 74.67 475.371 72.035 475.314 68.125C475.257 64.1583 475.229 59.115 475.229 52.995C475.229 46.875 475.257 41.86 475.314 37.95C475.371 33.9833 475.456 31.32 475.569 29.96C475.739 28.6 476.022 27.4667 476.419 26.56C477.666 23.7833 480.187 22.395 483.984 22.395C486.421 22.395 488.376 23.0467 489.849 24.35C490.699 25.1433 491.294 26.1067 491.634 27.24C492.031 28.3167 492.257 29.7617 492.314 31.575C492.427 33.3317 492.484 36.2783 492.484 40.415H487.724V36.25C487.724 33.4733 487.639 31.5183 487.469 30.385C487.356 29.2517 487.016 28.4583 486.449 28.005C485.882 27.4383 485.061 27.155 483.984 27.155C482.341 27.155 481.264 27.7783 480.754 29.025C480.527 29.4783 480.386 30.215 480.329 31.235C480.272 32.255 480.216 34.635 480.159 38.375C480.159 42.115 480.159 46.9883 480.159 52.995C480.159 59.0017 480.159 63.875 480.159 67.615C480.216 71.355 480.272 73.735 480.329 74.755C480.386 75.775 480.527 76.5117 480.754 76.965C481.264 78.2117 482.341 78.835 483.984 78.835C484.777 78.835 485.429 78.6933 485.939 78.41C486.506 78.1267 486.931 77.7017 487.214 77.135C487.384 76.6817 487.497 76.115 487.554 75.435C487.611 74.755 487.639 72.9983 487.639 70.165C487.696 67.3317 487.724 63.5633 487.724 58.86H484.069V54.1H492.654ZM507.547 22.99H512.477V47.725H520.042V22.99H524.972V83H520.042V52.485H512.477V83H507.547V22.99ZM542.94 70.845H534.525L533.42 83H528.575L534.865 22.99H542.6L548.89 83H544.13L542.94 70.845ZM542.515 66.17L538.775 27.665H538.605L535.035 66.17H542.515ZM560.64 83.595C556.843 83.595 554.322 82.2067 553.075 79.43C552.678 78.5233 552.395 77.39 552.225 76.03C552.112 74.67 552.027 72.035 551.97 68.125C551.913 64.1583 551.885 59.115 551.885 52.995C551.885 46.875 551.913 41.86 551.97 37.95C552.027 33.9833 552.112 31.32 552.225 29.96C552.395 28.6 552.678 27.4667 553.075 26.56C554.322 23.7833 556.843 22.395 560.64 22.395C563.02 22.395 564.975 23.075 566.505 24.435C567.355 25.2283 567.978 26.1917 568.375 27.325C568.772 28.4017 568.998 29.8467 569.055 31.66C569.168 33.4733 569.225 36.3917 569.225 40.415H564.38C564.38 37.5817 564.352 35.23 564.295 33.36C564.238 31.49 564.125 30.215 563.955 29.535C563.785 28.855 563.502 28.345 563.105 28.005C562.425 27.4383 561.603 27.155 560.64 27.155C558.997 27.155 557.92 27.7783 557.41 29.025C557.183 29.4783 557.042 30.215 556.985 31.235C556.928 32.255 556.872 34.635 556.815 38.375C556.815 42.115 556.815 46.9883 556.815 52.995C556.815 59.0017 556.815 63.875 556.815 67.615C556.872 71.355 556.928 73.735 556.985 74.755C557.042 75.775 557.183 76.5117 557.41 76.965C557.92 78.2117 558.997 78.835 560.64 78.835C561.603 78.835 562.425 78.5517 563.105 77.985C563.502 77.645 563.785 77.135 563.955 76.455C564.125 75.7183 564.238 74.3867 564.295 72.46C564.352 70.4767 564.38 67.9833 564.38 64.98H569.225C569.225 69.1167 569.168 72.1767 569.055 74.16C568.942 76.0867 568.687 77.6167 568.29 78.75C567.95 79.8833 567.327 80.8467 566.42 81.64C565.003 82.9433 563.077 83.595 560.64 83.595ZM588.239 83L579.909 52.4V83H574.979V22.99H579.909V49.85L587.134 22.99H592.149L584.499 51.04L593.339 83H588.239ZM609.21 70.845H600.795L599.69 83H594.845L601.135 22.99H608.87L615.16 83H610.4L609.21 70.845ZM608.785 66.17L605.045 27.665H604.875L601.305 66.17H608.785ZM619.385 27.75H614.2V22.99H629.5V27.75H624.315V83H619.385V27.75ZM633.28 22.99H638.21V47.725H645.775V22.99H650.705V83H645.775V52.485H638.21V83H633.28V22.99ZM665.529 83.595C661.562 83.595 658.984 82.065 657.794 79.005C657.454 78.155 657.199 77.05 657.029 75.69C656.915 74.2733 656.83 71.6383 656.774 67.785C656.774 63.875 656.774 58.945 656.774 52.995C656.774 46.705 656.802 41.605 656.859 37.695C656.915 33.7283 657 31.1217 657.114 29.875C657.284 28.5717 657.567 27.4667 657.964 26.56C659.21 23.7833 661.732 22.395 665.529 22.395C667.512 22.395 669.099 22.7633 670.289 23.5C671.535 24.2367 672.47 25.3133 673.094 26.73C673.49 27.58 673.745 28.6567 673.859 29.96C674.029 31.2633 674.114 33.8983 674.114 37.865C674.17 41.775 674.199 46.8183 674.199 52.995C674.199 59.285 674.17 64.4133 674.114 68.38C674.114 72.29 674.029 74.8967 673.859 76.2C673.745 77.4467 673.49 78.5233 673.094 79.43C672.414 80.8467 671.45 81.895 670.204 82.575C668.957 83.255 667.399 83.595 665.529 83.595ZM665.529 78.835C667.115 78.835 668.192 78.24 668.759 77.05C668.929 76.54 669.042 75.8033 669.099 74.84C669.155 73.8767 669.184 71.525 669.184 67.785C669.24 64.045 669.269 59.115 669.269 52.995C669.269 46.875 669.24 41.945 669.184 38.205C669.184 34.465 669.155 32.1133 669.099 31.15C669.042 30.1867 668.929 29.45 668.759 28.94C668.192 27.75 667.115 27.155 665.529 27.155C663.885 27.155 662.809 27.75 662.299 28.94C662.072 29.45 661.93 30.1867 661.874 31.15C661.817 32.1133 661.76 34.465 661.704 38.205C661.704 41.945 661.704 46.875 661.704 52.995C661.704 59.115 661.704 64.045 661.704 67.785C661.76 71.525 661.817 73.8767 661.874 74.84C661.93 75.8033 662.072 76.54 662.299 77.05C662.809 78.24 663.885 78.835 665.529 78.835ZM680.283 22.99H686.488L695.158 70.76V22.99H699.918V83H693.883L684.958 34.125V83H680.283V22.99Z"/><path fill="#D9D9D9" fill-rule="evenodd" d="M246 17H6V196H246V17ZM38.7607 25.62H15.7607V188H37.6107V87.49L59.6907 188H81.5407V25.62H59.4607V121.76L38.7607 25.62ZM115.128 25.62H92.1279V188H115.128V25.62ZM121.449 47.24H133.869V188H156.639V47.24H169.059V25.62H121.449V47.24ZM198.233 107.73L214.563 188H237.333L218.473 100.83L235.263 25.62H212.033L198.233 93.93V25.62H175.233V188H198.233V107.73Z" clip-rule="evenodd"/></svg>