<svg width="512" height="512" viewBox="0 0 512 512" fill="none" xmlns="http://www.w3.org/2000/svg">
<path fill-rule="evenodd" clip-rule="evenodd" d="M256 512C397.385 512 512 397.385 512 256C512 114.615 397.385 0 256 0C114.615 0 0 114.615 0 256C0 397.385 114.615 512 256 512ZM304.432 128C329.212 132.145 352.914 139.424 375.081 149.44C413.839 205.337 433.097 268.38 425.986 341.094C396.332 362.507 367.566 375.499 339.285 384C332.282 374.728 326.087 364.845 320.728 354.484C330.936 350.738 340.739 346.115 350.005 340.723C347.581 338.969 345.184 337.136 342.84 335.249C287.167 360.701 225.946 360.701 169.6 335.249C167.284 337.136 164.886 338.969 162.436 340.723C171.674 346.089 181.451 350.712 191.659 354.458C186.299 364.845 180.077 374.702 173.101 383.974C144.847 375.472 116.109 362.481 86.4542 341.094C80.394 278.37 92.5143 214.742 137.225 149.493C159.392 139.451 183.121 132.145 207.927 128C210.998 133.313 214.634 140.46 217.085 146.146C242.942 142.32 269.041 142.32 295.382 146.146C297.834 140.46 301.389 133.313 304.432 128ZM168.549 268.699C168.549 287.27 182.421 302.519 199.335 302.519C216.546 302.519 230.148 287.27 230.121 268.699C230.417 250.102 216.546 234.853 199.335 234.853C182.124 234.853 168.549 250.129 168.549 268.699ZM282.319 268.699C282.319 287.27 296.191 302.519 313.105 302.519C330.316 302.519 343.891 287.27 343.891 268.699C344.187 250.102 330.316 234.853 313.105 234.853C295.894 234.853 282.319 250.129 282.319 268.699Z" fill="#EB476F"/>
</svg>
